<?xml version="1.0" encoding="UTF-8" standalone="no"?>
<!-- Created with Inkscape (http://www.inkscape.org/) -->

<svg
   width="180mm"
   height="90mm"
   viewBox="0 0 180 90"
   version="1.1"
   id="svg5"
   inkscape:version="1.2 (dc2aedaf03, 2022-05-15)"
   sodipodi:docname="splash-bg.svg"
   xmlns:inkscape="http://www.inkscape.org/namespaces/inkscape"
   xmlns:sodipodi="http://sodipodi.sourceforge.net/DTD/sodipodi-0.dtd"
   xmlns:xlink="http://www.w3.org/1999/xlink"
   xmlns="http://www.w3.org/2000/svg"
   xmlns:svg="http://www.w3.org/2000/svg">
  <sodipodi:namedview
     id="namedview7"
     pagecolor="#505050"
     bordercolor="#ffffff"
     borderopacity="1"
     inkscape:showpageshadow="0"
     inkscape:pageopacity="0"
     inkscape:pagecheckerboard="1"
     inkscape:deskcolor="#505050"
     inkscape:document-units="mm"
     showgrid="false"
     inkscape:zoom="1.4770342"
     inkscape:cx="297.55573"
     inkscape:cy="195.66236"
     inkscape:window-width="1920"
     inkscape:window-height="1009"
     inkscape:window-x="1912"
     inkscape:window-y="-8"
     inkscape:window-maximized="1"
     inkscape:current-layer="layer1" />
  <defs
     id="defs2">
    <linearGradient
       inkscape:collect="always"
       id="linearGradient1827">
      <stop
         style="stop-color:#ffffff;stop-opacity:1;"
         offset="0"
         id="stop1823" />
      <stop
         style="stop-color:#ffffff;stop-opacity:1;"
         offset="1"
         id="stop1825" />
    </linearGradient>
    <linearGradient
       inkscape:collect="always"
       id="linearGradient985">
      <stop
         style="stop-color:#7c4ed7;stop-opacity:1;"
         offset="0"
         id="stop981" />
      <stop
         style="stop-color:#f777d6;stop-opacity:1;"
         offset="0.5"
         id="stop989" />
      <stop
         style="stop-color:#5bf9fb;stop-opacity:1;"
         offset="1"
         id="stop983" />
    </linearGradient>
    <linearGradient
       inkscape:collect="always"
       xlink:href="#linearGradient985"
       id="linearGradient987"
       x1="11.483778"
       y1="56.700478"
       x2="119.42022"
       y2="56.700478"
       gradientUnits="userSpaceOnUse" />
    <linearGradient
       inkscape:collect="always"
       xlink:href="#linearGradient1827"
       id="linearGradient1829"
       x1="41.322266"
       y1="45"
       x2="118.60449"
       y2="45"
       gradientUnits="userSpaceOnUse" />
    <linearGradient
       inkscape:collect="always"
       xlink:href="#linearGradient985"
       id="linearGradient1951"
       gradientUnits="userSpaceOnUse"
       x1="11.483778"
       y1="56.700478"
       x2="119.42022"
       y2="56.700478" />
    <linearGradient
       inkscape:collect="always"
       xlink:href="#linearGradient985"
       id="linearGradient1953"
       gradientUnits="userSpaceOnUse"
       x1="11.483778"
       y1="56.700478"
       x2="119.42022"
       y2="56.700478" />
    <linearGradient
       inkscape:collect="always"
       xlink:href="#linearGradient985"
       id="linearGradient1955"
       gradientUnits="userSpaceOnUse"
       x1="11.483778"
       y1="56.700478"
       x2="119.42022"
       y2="56.700478" />
    <linearGradient
       inkscape:collect="always"
       xlink:href="#linearGradient985"
       id="linearGradient1957"
       gradientUnits="userSpaceOnUse"
       x1="11.483778"
       y1="56.700478"
       x2="119.42022"
       y2="56.700478" />
    <linearGradient
       inkscape:collect="always"
       xlink:href="#linearGradient1827"
       id="linearGradient4204"
       gradientUnits="userSpaceOnUse"
       x1="41.322266"
       y1="45"
       x2="118.60449"
       y2="45" />
    <linearGradient
       inkscape:collect="always"
       xlink:href="#linearGradient1827"
       id="linearGradient4206"
       gradientUnits="userSpaceOnUse"
       x1="41.322266"
       y1="45"
       x2="118.60449"
       y2="45" />
    <linearGradient
       inkscape:collect="always"
       xlink:href="#linearGradient1827"
       id="linearGradient4208"
       gradientUnits="userSpaceOnUse"
       x1="41.322266"
       y1="45"
       x2="118.60449"
       y2="45" />
    <linearGradient
       inkscape:collect="always"
       xlink:href="#linearGradient1827"
       id="linearGradient4210"
       gradientUnits="userSpaceOnUse"
       x1="41.322266"
       y1="45"
       x2="118.60449"
       y2="45" />
    <linearGradient
       inkscape:collect="always"
       xlink:href="#linearGradient1827"
       id="linearGradient4212"
       gradientUnits="userSpaceOnUse"
       x1="41.322266"
       y1="45"
       x2="118.60449"
       y2="45" />
    <linearGradient
       inkscape:collect="always"
       xlink:href="#linearGradient1827"
       id="linearGradient4214"
       gradientUnits="userSpaceOnUse"
       x1="41.322266"
       y1="45"
       x2="118.60449"
       y2="45" />
    <linearGradient
       inkscape:collect="always"
       xlink:href="#linearGradient1827"
       id="linearGradient4216"
       gradientUnits="userSpaceOnUse"
       x1="41.322266"
       y1="45"
       x2="118.60449"
       y2="45" />
    <linearGradient
       inkscape:collect="always"
       xlink:href="#linearGradient1827"
       id="linearGradient4218"
       gradientUnits="userSpaceOnUse"
       x1="41.322266"
       y1="45"
       x2="118.60449"
       y2="45" />
    <linearGradient
       inkscape:collect="always"
       xlink:href="#linearGradient1827"
       id="linearGradient4220"
       gradientUnits="userSpaceOnUse"
       x1="41.322266"
       y1="45"
       x2="118.60449"
       y2="45" />
    <linearGradient
       inkscape:collect="always"
       xlink:href="#linearGradient1827"
       id="linearGradient4222"
       gradientUnits="userSpaceOnUse"
       x1="41.322266"
       y1="45"
       x2="118.60449"
       y2="45" />
    <linearGradient
       inkscape:collect="always"
       xlink:href="#linearGradient1827"
       id="linearGradient4224"
       gradientUnits="userSpaceOnUse"
       x1="41.322266"
       y1="45"
       x2="118.60449"
       y2="45" />
    <linearGradient
       inkscape:collect="always"
       xlink:href="#linearGradient1827"
       id="linearGradient4226"
       gradientUnits="userSpaceOnUse"
       x1="41.322266"
       y1="45"
       x2="118.60449"
       y2="45" />
    <linearGradient
       inkscape:collect="always"
       xlink:href="#linearGradient985"
       id="linearGradient4238"
       gradientUnits="userSpaceOnUse"
       x1="11.483778"
       y1="56.700478"
       x2="119.42022"
       y2="56.700478" />
    <linearGradient
       inkscape:collect="always"
       xlink:href="#linearGradient985"
       id="linearGradient4240"
       gradientUnits="userSpaceOnUse"
       x1="11.483778"
       y1="56.700478"
       x2="119.42022"
       y2="56.700478" />
    <linearGradient
       inkscape:collect="always"
       xlink:href="#linearGradient985"
       id="linearGradient4242"
       gradientUnits="userSpaceOnUse"
       x1="11.483778"
       y1="56.700478"
       x2="119.42022"
       y2="56.700478" />
  </defs>
  <g
     inkscape:label="Layer 1"
     inkscape:groupmode="layer"
     id="layer1">
    <g
       id="g4236"
       transform="translate(-6.1921114,3.5882053)">
      <g
         aria-label="LOI"
         id="text186"
         style="font-weight:bold;font-size:63.2346px;font-family:Bahnschrift;-inkscape-font-specification:'Bahnschrift Bold';text-align:center;text-anchor:middle;opacity:0.5;fill:none;stroke:url(#linearGradient987);stroke-width:2;stroke-linecap:round;stroke-linejoin:round;stroke-dasharray:none">
        <path
           d="M 12.483755,79.317345 21.96277,34.052733 h 9.293757 l -7.873449,37.699926 h 23.033697 l -1.574689,7.564686 z"
           style="font-style:italic;font-family:Arial;-inkscape-font-specification:'Arial Bold';stroke:url(#linearGradient4238);stroke-width:2;stroke-linejoin:round;stroke-dasharray:none"
           id="path951" />
        <path
           d="m 53.796204,61.56349 q 0,-4.013915 1.204174,-8.460098 1.57469,-5.95912 4.785822,-10.34355 3.242008,-4.384431 8.151335,-6.916285 4.909327,-2.56273 11.17721,-2.56273 8.398345,0 13.554682,5.218089 5.187213,5.21809 5.187213,13.832569 0,7.163295 -3.365513,13.863445 -3.365514,6.700151 -9.139376,10.312674 -5.773862,3.612524 -13.060662,3.612524 -6.329635,0 -10.621437,-2.871493 -4.291801,-2.871493 -6.082625,-7.101542 -1.790823,-4.260926 -1.790823,-8.583603 z m 9.201128,-0.185258 q 0,4.662317 2.840617,7.811696 2.840617,3.14938 7.472057,3.14938 3.766905,0 7.225047,-2.470102 3.489018,-2.500978 5.742986,-7.53381 2.284844,-5.063708 2.284844,-9.84953 0,-5.341594 -2.871493,-8.367469 -2.871493,-3.05675 -7.317676,-3.05675 -6.823655,0 -11.115457,6.360511 -4.260925,6.360512 -4.260925,13.956074 z"
           style="font-style:italic;font-family:Arial;-inkscape-font-specification:'Arial Bold';stroke:url(#linearGradient4240);stroke-width:2;stroke-linejoin:round;stroke-dasharray:none"
           id="path953" />
        <path
           d="m 99.647464,79.317345 9.479016,-45.264612 h 9.29376 l -9.44814,45.264612 z"
           style="font-style:italic;font-family:Arial;-inkscape-font-specification:'Arial Bold';stroke:url(#linearGradient4242);stroke-width:2;stroke-linejoin:round;stroke-dasharray:none"
           id="path955" />
      </g>
      <g
         aria-label="LOI"
         id="text186-2"
         style="font-weight:bold;font-size:63.2346px;font-family:Bahnschrift;-inkscape-font-specification:'Bahnschrift Bold';text-align:center;text-anchor:middle;opacity:0.15;fill:none;stroke:url(#linearGradient1957);stroke-width:2;stroke-linecap:round;stroke-linejoin:round;stroke-dasharray:none"
         transform="translate(-5.2916667,5.2916667)">
        <path
           d="M 12.483755,79.317345 21.96277,34.052733 h 9.293757 l -7.873449,37.699926 h 23.033697 l -1.574689,7.564686 z"
           style="font-style:italic;font-family:Arial;-inkscape-font-specification:'Arial Bold';stroke:url(#linearGradient1951);stroke-width:2;stroke-linejoin:round;stroke-dasharray:none"
           id="path951-9" />
        <path
           d="m 53.796204,61.56349 q 0,-4.013915 1.204174,-8.460098 1.57469,-5.95912 4.785822,-10.34355 3.242008,-4.384431 8.151335,-6.916285 4.909327,-2.56273 11.17721,-2.56273 8.398345,0 13.554682,5.218089 5.187213,5.21809 5.187213,13.832569 0,7.163295 -3.365513,13.863445 -3.365514,6.700151 -9.139376,10.312674 -5.773862,3.612524 -13.060662,3.612524 -6.329635,0 -10.621437,-2.871493 -4.291801,-2.871493 -6.082625,-7.101542 -1.790823,-4.260926 -1.790823,-8.583603 z m 9.201128,-0.185258 q 0,4.662317 2.840617,7.811696 2.840617,3.14938 7.472057,3.14938 3.766905,0 7.225047,-2.470102 3.489018,-2.500978 5.742986,-7.53381 2.284844,-5.063708 2.284844,-9.84953 0,-5.341594 -2.871493,-8.367469 -2.871493,-3.05675 -7.317676,-3.05675 -6.823655,0 -11.115457,6.360511 -4.260925,6.360512 -4.260925,13.956074 z"
           style="font-style:italic;font-family:Arial;-inkscape-font-specification:'Arial Bold';stroke:url(#linearGradient1953);stroke-width:2;stroke-linejoin:round;stroke-dasharray:none"
           id="path953-5" />
        <path
           d="m 99.647464,79.317345 9.479016,-45.264612 h 9.29376 l -9.44814,45.264612 z"
           style="font-style:italic;font-family:Arial;-inkscape-font-specification:'Arial Bold';stroke:url(#linearGradient1955);stroke-width:2;stroke-linejoin:round;stroke-dasharray:none"
           id="path955-1" />
      </g>
    </g>
    <g
       aria-label="LOITSU EDITOR"
       id="text1771"
       style="font-weight:bold;font-size:10px;font-family:Arial;-inkscape-font-specification:'Arial Bold';text-align:center;text-anchor:middle;fill:none;stroke:url(#linearGradient1829);stroke-width:0.5;stroke-linecap:round;stroke-linejoin:round"
       transform="matrix(0.8761599,0,0,0.8761599,19.939292,5.5728045)">
      <path
         d="m 41.572266,48.57666 1.499023,-7.158203 h 1.469727 l -1.245118,5.961914 h 3.642579 l -0.249024,1.196289 z"
         style="font-style:italic;stroke:url(#linearGradient4204)"
         id="path2689" />
      <path
         d="m 48.105469,45.769043 q 0,-0.634766 0.190429,-1.337891 0.249024,-0.942382 0.756836,-1.635742 0.512696,-0.693359 1.289063,-1.09375 0.776367,-0.405273 1.767578,-0.405273 1.328125,0 2.143555,0.825195 0.820312,0.825195 0.820312,2.1875 0,1.132813 -0.532226,2.192383 -0.532227,1.05957 -1.445313,1.630859 -0.913086,0.571289 -2.06543,0.571289 -1.000976,0 -1.679687,-0.454101 -0.678711,-0.454102 -0.961914,-1.123047 -0.283203,-0.673828 -0.283203,-1.357422 z m 1.455078,-0.0293 q 0,0.737305 0.449219,1.235352 0.449218,0.498047 1.18164,0.498047 0.595703,0 1.142578,-0.390625 0.551758,-0.395508 0.908203,-1.191407 0.361329,-0.800781 0.361329,-1.557617 0,-0.844726 -0.454102,-1.323242 -0.454102,-0.483399 -1.157227,-0.483399 -1.079101,0 -1.757812,1.00586 -0.673828,1.005859 -0.673828,2.207031 z"
         style="font-style:italic;stroke:url(#linearGradient4206)"
         id="path2691" />
      <path
         d="m 55.356445,48.57666 1.499024,-7.158203 h 1.469726 l -1.49414,7.158203 z"
         style="font-style:italic;stroke:url(#linearGradient4208)"
         id="path2693" />
      <path
         d="m 61.313477,48.57666 h -1.47461 l 1.25,-5.961914 h -2.099609 l 0.249023,-1.196289 h 5.639649 l -0.249024,1.196289 h -2.070312 z"
         style="font-style:italic;stroke:url(#linearGradient4210)"
         id="path2695" />
      <path
         d="m 64.53125,46.257324 1.401367,-0.07324 q 0.0293,0.668945 0.229492,0.90332 0.322266,0.38086 1.191407,0.38086 0.722656,0 1.044921,-0.258789 0.322266,-0.258789 0.322266,-0.625 0,-0.317383 -0.263672,-0.53711 -0.185547,-0.161133 -1.020508,-0.522461 -0.830078,-0.361328 -1.21582,-0.600586 -0.380859,-0.24414 -0.600586,-0.629882 -0.219726,-0.385743 -0.219726,-0.903321 0,-0.90332 0.654296,-1.499023 0.654297,-0.595703 1.894532,-0.595703 1.259765,0 1.948242,0.59082 0.693359,0.59082 0.761719,1.572266 l -1.411133,0.06348 q -0.05371,-0.512695 -0.371094,-0.786133 -0.317383,-0.273437 -0.9375,-0.273437 -0.610351,0 -0.874023,0.214844 -0.258789,0.214843 -0.258789,0.541992 0,0.307617 0.239257,0.507812 0.239258,0.205078 1.059571,0.561524 1.235351,0.532226 1.572265,0.864258 0.50293,0.488281 0.50293,1.254882 0,0.947266 -0.751953,1.621094 -0.74707,0.668945 -2.084961,0.668945 -0.922852,0 -1.601563,-0.307617 -0.673828,-0.3125 -0.952148,-0.864258 -0.27832,-0.551757 -0.258789,-1.269531 z"
         style="font-style:italic;stroke:url(#linearGradient4212)"
         id="path2697" />
      <path
         d="m 72.475586,41.418457 h 1.469726 l -0.810546,3.886719 -0.200196,0.957031 q -0.01953,0.12207 -0.01953,0.229492 0,0.424805 0.307617,0.703125 0.3125,0.273438 0.903321,0.273438 0.532226,0 0.878906,-0.200196 0.346679,-0.200195 0.537109,-0.595703 0.19043,-0.395508 0.385742,-1.342773 l 0.820313,-3.911133 h 1.469726 l -0.815429,3.916016 q -0.258789,1.235351 -0.595703,1.889648 -0.336914,0.654297 -1.020508,1.064453 -0.683594,0.410156 -1.728516,0.410156 -1.25,0 -1.914062,-0.610351 -0.664063,-0.615234 -0.664063,-1.577149 0,-0.200195 0.03418,-0.43457 0.01953,-0.15625 0.170898,-0.888672 z"
         style="font-style:italic;stroke:url(#linearGradient4214)"
         id="path2699" />
      <path
         d="m 80.976562,48.57666 1.494141,-7.158203 h 5.307617 l -0.249023,1.196289 h -3.833008 l -0.341797,1.625977 h 3.706055 l -0.249024,1.196289 h -3.706054 l -0.449219,1.943359 h 4.165039 l -0.253906,1.196289 z"
         style="font-style:italic;stroke:url(#linearGradient4216)"
         id="path2701" />
      <path
         d="m 87.670898,48.57666 1.499024,-7.158203 h 1.928711 q 0.805664,0 1.030273,0.02441 0.444336,0.04395 0.791016,0.180664 0.351562,0.136719 0.634765,0.385742 0.288086,0.244141 0.493165,0.590821 0.20996,0.346679 0.322265,0.800781 0.112305,0.449219 0.112305,0.986328 0,1.157227 -0.444336,2.055664 -0.439453,0.893555 -1.108399,1.420899 -0.512695,0.410156 -1.323242,0.605468 -0.458984,0.107422 -1.411133,0.107422 z m 1.713868,-1.152344 h 0.74707 q 0.810547,0 1.171875,-0.09766 0.366211,-0.102539 0.668945,-0.375976 0.434571,-0.395508 0.732422,-1.054688 0.297852,-0.65918 0.297852,-1.552734 0,-0.761719 -0.249024,-1.142578 -0.24414,-0.385743 -0.605469,-0.512696 -0.253906,-0.08789 -0.90332,-0.08789 h -0.854492 z"
         style="font-style:italic;stroke:url(#linearGradient4218)"
         id="path2703" />
      <path
         d="m 94.804687,48.57666 1.499024,-7.158203 h 1.469726 l -1.49414,7.158203 z"
         style="font-style:italic;stroke:url(#linearGradient4220)"
         id="path2705" />
      <path
         d="m 100.76172,48.57666 h -1.474611 l 1.250001,-5.961914 H 98.4375 l 0.249023,-1.196289 h 5.639647 l -0.24902,1.196289 h -2.07031 z"
         style="font-style:italic;stroke:url(#linearGradient4222)"
         id="path2707" />
      <path
         d="m 104.03809,45.769043 q 0,-0.634766 0.19043,-1.337891 0.24902,-0.942382 0.75683,-1.635742 0.5127,-0.693359 1.28906,-1.09375 0.77637,-0.405273 1.76758,-0.405273 1.32813,0 2.14356,0.825195 0.82031,0.825195 0.82031,2.1875 0,1.132813 -0.53223,2.192383 -0.53222,1.05957 -1.44531,1.630859 -0.91309,0.571289 -2.06543,0.571289 -1.00098,0 -1.67969,-0.454101 -0.67871,-0.454102 -0.96191,-1.123047 -0.2832,-0.673828 -0.2832,-1.357422 z m 1.45507,-0.0293 q 0,0.737305 0.44922,1.235352 0.44922,0.498047 1.18164,0.498047 0.59571,0 1.14258,-0.390625 0.55176,-0.395508 0.9082,-1.191407 0.36133,-0.800781 0.36133,-1.557617 0,-0.844726 -0.4541,-1.323242 -0.4541,-0.483399 -1.15723,-0.483399 -1.0791,0 -1.75781,1.00586 -0.67383,1.005859 -0.67383,2.207031 z"
         style="font-style:italic;stroke:url(#linearGradient4224)"
         id="path2709" />
      <path
         d="m 112.85645,48.57666 h -1.47461 l 1.49902,-7.158203 h 3.17871 q 0.82031,0 1.27441,0.170898 0.45899,0.166016 0.73731,0.615235 0.2832,0.449219 0.2832,1.088867 0,0.913086 -0.54687,1.508789 -0.54688,0.59082 -1.65528,0.732422 0.28321,0.253906 0.53223,0.668945 0.49316,0.839844 1.09863,2.373047 h -1.58203 q -0.19043,-0.605469 -0.74707,-1.889648 -0.30273,-0.69336 -0.64453,-0.932617 -0.20996,-0.141602 -0.73242,-0.141602 h -0.60059 z m 0.84472,-4.038086 h 0.78125 q 1.18653,0 1.57227,-0.141601 0.39062,-0.141602 0.61035,-0.444336 0.21973,-0.302735 0.21973,-0.634766 0,-0.390625 -0.31739,-0.585937 -0.19531,-0.117188 -0.84472,-0.117188 h -1.6211 z"
         style="font-style:italic;stroke:url(#linearGradient4226)"
         id="path2711" />
    </g>
  </g>
</svg>
